<?xml version="1.0" encoding="UTF-8" standalone="no" ?>
<!DOCTYPE svg PUBLIC "-//W3C//DTD SVG 1.1//EN" "http://www.w3.org/Graphics/SVG/1.1/DTD/svg11.dtd">
<svg xmlns="http://www.w3.org/2000/svg" xmlns:xlink="http://www.w3.org/1999/xlink" version="1.1" width="62.96852000000001" height="62.96852000000001" viewBox="79.08545514242877 125.9370293553223 62.96852000000001 62.96852000000001" xml:space="preserve">
<desc>Created with Fabric.js 5.3.0</desc>
<defs>
</defs>
<g transform="matrix(1 0 0 1 110.5697151424 157.4212893553)" id="2jJgsI-zOGwmcaZ_jN19V"  >
<path style="stroke: rgb(106,215,168); stroke-width: 0; stroke-dasharray: none; stroke-linecap: butt; stroke-dashoffset: 0; stroke-linejoin: miter; stroke-miterlimit: 4; fill: rgb(33,34,76); fill-rule: nonzero; opacity: 1;"  transform=" translate(-31.48426, -31.48426)" d="M 0 13.35764 C 0 5.98042 5.98042 0 13.35764 0 L 49.610879999999995 0 L 49.610879999999995 0 C 56.988099999999996 0 62.96852 5.98042 62.96852 13.35764 L 62.96852 49.610879999999995 L 62.96852 49.610879999999995 C 62.96852 56.988099999999996 56.988099999999996 62.96852 49.610879999999995 62.96852 L 13.357639999999996 62.96852 L 13.357639999999996 62.96852 C 5.980419999999996 62.96852 -3.552713678800501e-15 56.988099999999996 -3.552713678800501e-15 49.610879999999995 z" stroke-linecap="round" />
</g>
<g transform="matrix(0.4580188052 0 0 0.5576764394 93.6162625558 160.7908748901)" id="TbEVUHNr6AXT6Wy3nEGwv"  >
<path style="stroke: rgb(255,226,18); stroke-width: 3; stroke-dasharray: none; stroke-linecap: butt; stroke-dashoffset: 0; stroke-linejoin: miter; stroke-miterlimit: 4; fill: rgb(255,255,255); fill-opacity: 0; fill-rule: nonzero; opacity: 1;"  transform=" translate(-0.000005, 0)" d="M 15.36732 37.12348 L 15.36732 -37.12348 L -15.36731 -19.09841 L -8.56115 37.12348 z" stroke-linecap="round" />
</g>
<g transform="matrix(0.4580188052 0 0 0.5867201682 113.3284251354 157.4212893553)" id="pLs3RbxP0y6SyCd8fefIv"  >
<path style="stroke: rgb(255,226,18); stroke-width: 4; stroke-dasharray: none; stroke-linecap: butt; stroke-dashoffset: 0; stroke-linejoin: miter; stroke-miterlimit: 4; fill: rgb(255,255,255); fill-opacity: 0; fill-rule: nonzero; opacity: 1;"  transform=" translate(0.000005, -0.000005)" d="M -20.98951 41.47939 L -20.98951 -41.47938 L 20.989500000000003 -33.76757 L 14.992500000000003 41.47939 z" stroke-linecap="round" />
</g>
<g transform="matrix(0.3933723673 0 0 0.5576764394 128.8593625494 165.1202759716)" id="WJt4NQQS50A-s2dUUNDgs"  >
<path style="stroke: rgb(255,226,18); stroke-width: 3; stroke-dasharray: none; stroke-linecap: butt; stroke-dashoffset: 0; stroke-linejoin: miter; stroke-miterlimit: 4; fill: rgb(255,255,255); fill-opacity: 0; fill-rule: nonzero; opacity: 1;"  transform=" translate(-0.000005, 0.000005)" d="M -14.7425 29.86019 L -9.99512 -29.860200000000003 L 14.74251 -23.113570000000003 L 7.2462599999999995 29.860189999999996 z" stroke-linecap="round" />
</g>
</svg>